<svg width="16" height="16" viewBox="0 0 16 16" fill="none" xmlns="http://www.w3.org/2000/svg">
<path d="M14 14.6667H2C1.72667 14.6667 1.5 14.44 1.5 14.1667C1.5 13.8934 1.72667 13.6667 2 13.6667H14C14.2733 13.6667 14.5 13.8934 14.5 14.1667C14.5 14.44 14.2733 14.6667 14 14.6667Z" fill="#292D32"/>
<path d="M12.68 2.32C11.3867 1.02667 10.12 0.993336 8.79334 2.32L7.98668 3.12667C7.92001 3.19334 7.89334 3.3 7.92001 3.39334C8.42668 5.16 9.84001 6.57334 11.6067 7.08C11.6333 7.08667 11.66 7.09334 11.6867 7.09334C11.76 7.09334 11.8267 7.06667 11.88 7.01334L12.68 6.20667C13.34 5.55334 13.66 4.92 13.66 4.28C13.6667 3.62 13.3467 2.98 12.68 2.32Z" fill="#292D32"/>
<path d="M10.4067 7.68672C10.2133 7.59339 10.0267 7.50005 9.84668 7.39339C9.70001 7.30672 9.56001 7.21339 9.42001 7.11339C9.30668 7.04005 9.17334 6.93339 9.04668 6.82672C9.03334 6.82005 8.98668 6.78005 8.93334 6.72672C8.71334 6.54005 8.46668 6.30005 8.24668 6.03339C8.22668 6.02005 8.19334 5.97339 8.14668 5.91339C8.08001 5.83339 7.96668 5.70005 7.86668 5.54672C7.78668 5.44672 7.69334 5.30005 7.60668 5.15339C7.50001 4.97339 7.40668 4.79339 7.31334 4.60672C7.29922 4.57646 7.28555 4.54635 7.2723 4.51641C7.17392 4.2942 6.88416 4.22923 6.71232 4.40107L2.89334 8.22005C2.80668 8.30672 2.72668 8.47339 2.70668 8.58672L2.34668 11.1401C2.28001 11.5934 2.40668 12.0201 2.68668 12.3067C2.92668 12.5401 3.26001 12.6667 3.62001 12.6667C3.70001 12.6667 3.78001 12.6601 3.86001 12.6467L6.42001 12.2867C6.54001 12.2667 6.70668 12.1867 6.78668 12.1001L10.6009 8.28584C10.7739 8.11281 10.7086 7.81583 10.4836 7.71979C10.4582 7.70898 10.4326 7.69796 10.4067 7.68672Z" fill="#292D32"/>
</svg>
