<svg width="218" height="52" viewBox="0 0 218 52" fill="none" xmlns="http://www.w3.org/2000/svg">
<path d="M10 10.0571H16.3771V16.4343H10V10.0571Z" fill="#055DF5"/>
<path d="M10 16.4343H16.3771V22.8114H10V16.4343Z" fill="#055DF5"/>
<path d="M10 22.8114H16.3771V29.1886H10V22.8114Z" fill="#055DF5"/>
<path d="M10 29.1886H16.3771V35.5657H10V29.1886Z" fill="#055DF5"/>
<path d="M10 35.5657H16.3771V41.9428H10V35.5657Z" fill="#055DF5"/>
<path d="M16.3771 10.0571H22.7543V16.4343H16.3771V10.0571Z" fill="#055DF5"/>
<path d="M22.7543 10.0571H29.1314V16.4343H22.7543V10.0571Z" fill="#055DF5"/>
<path d="M29.1314 16.4343H35.5086V22.8114H29.1314V16.4343Z" fill="#055DF5"/>
<path d="M29.1314 29.1886H35.5086V35.5657H29.1314V29.1886Z" fill="#055DF5"/>
<path d="M16.3771 22.6229L22.7543 22.6229V29L16.3771 29V22.6229Z" fill="#055DF5"/>
<path d="M22.7543 22.6229H29.1314V29H22.7543V22.6229Z" fill="#055DF5"/>
<path d="M16.3771 35.5657H22.7543V41.9428H16.3771V35.5657Z" fill="#055DF5"/>
<path d="M22.7543 35.5657H29.1314V41.9428H22.7543V35.5657Z" fill="#055DF5"/>
<path d="M49.8125 37.628V34.428H55.9885C57.1405 34.428 58.0259 34.108 58.6445 33.468C59.2845 32.828 59.6045 31.9533 59.6045 30.844C59.6045 29.7133 59.2952 28.8387 58.6765 28.22C58.0579 27.58 57.1619 27.26 55.9885 27.26H49.8125V24.828H55.6045C57.1405 24.828 58.4952 25.02 59.6685 25.404C60.8419 25.7667 61.7699 26.3747 62.4525 27.228C63.1352 28.0813 63.4765 29.244 63.4765 30.716V31.164C63.4765 32.5293 63.1779 33.7027 62.5805 34.684C62.0045 35.644 61.1299 36.38 59.9565 36.892C58.8045 37.3827 57.3539 37.628 55.6045 37.628H49.8125ZM46.6445 37.628V13.98H50.4525V37.628H46.6445ZM49.8125 26.588V24.188H55.1245C56.3405 24.188 57.2259 23.868 57.7805 23.228C58.3565 22.5667 58.6445 21.724 58.6445 20.7C58.6445 19.6547 58.3565 18.812 57.7805 18.172C57.2259 17.5107 56.3405 17.18 55.1245 17.18H49.8125V13.98H54.6445C57.2472 13.98 59.2099 14.5347 60.5325 15.644C61.8552 16.732 62.5165 18.3 62.5165 20.348V20.796C62.5165 22.2467 62.1752 23.3987 61.4925 24.252C60.8312 25.1053 59.9032 25.7133 58.7085 26.076C57.5352 26.4173 56.1805 26.588 54.6445 26.588H49.8125ZM76.1065 38.076C74.5919 38.076 73.2585 37.8307 72.1065 37.34C70.9545 36.828 69.9839 36.156 69.1945 35.324C68.4052 34.492 67.8079 33.5533 67.4025 32.508C66.9972 31.4413 66.7945 30.3427 66.7945 29.212V28.572C66.7945 27.4413 66.9972 26.3427 67.4025 25.276C67.8292 24.2093 68.4372 23.26 69.2265 22.428C70.0372 21.5747 71.0185 20.9027 72.1705 20.412C73.3225 19.9213 74.6345 19.676 76.1065 19.676C77.5785 19.676 78.8799 19.9213 80.0105 20.412C81.1625 20.9027 82.1439 21.5747 82.9545 22.428C83.7652 23.26 84.3732 24.2093 84.7785 25.276C85.2052 26.3427 85.4185 27.4413 85.4185 28.572V29.212C85.4185 30.3427 85.2159 31.4413 84.8105 32.508C84.4052 33.5533 83.8079 34.492 83.0185 35.324C82.2292 36.156 81.2585 36.828 80.1065 37.34C78.9545 37.8307 77.6212 38.076 76.1065 38.076ZM76.1065 34.812C77.2799 34.812 78.2825 34.556 79.1145 34.044C79.9465 33.5107 80.5759 32.796 81.0025 31.9C81.4505 31.004 81.6745 30.0013 81.6745 28.892C81.6745 27.7613 81.4505 26.748 81.0025 25.852C80.5545 24.956 79.9145 24.252 79.0825 23.74C78.2505 23.2067 77.2585 22.94 76.1065 22.94C74.9545 22.94 73.9625 23.2067 73.1305 23.74C72.2985 24.252 71.6585 24.956 71.2105 25.852C70.7625 26.748 70.5385 27.7613 70.5385 28.892C70.5385 30.0013 70.7519 31.004 71.1785 31.9C71.6265 32.796 72.2665 33.5107 73.0985 34.044C73.9305 34.556 74.9332 34.812 76.1065 34.812ZM89.698 37.5V20.252H92.674V27.644H92.322C92.322 25.9373 92.546 24.4973 92.994 23.324C93.4634 22.1507 94.1674 21.2653 95.106 20.668C96.0447 20.0493 97.2074 19.74 98.594 19.74H98.754C100.887 19.74 102.477 20.412 103.522 21.756C104.567 23.1 105.09 25.0627 105.09 27.644V37.5H101.346V27.132C101.346 25.9373 101.005 24.9773 100.322 24.252C99.6394 23.5053 98.7007 23.132 97.506 23.132C96.29 23.132 95.3087 23.516 94.562 24.284C93.8154 25.0307 93.442 26.0333 93.442 27.292V37.5H89.698ZM120.692 37.5V32.348H120.084V26.524C120.084 25.4573 119.806 24.6467 119.252 24.092C118.697 23.5373 117.876 23.26 116.788 23.26C116.19 23.26 115.529 23.2707 114.804 23.292C114.078 23.3133 113.364 23.3453 112.66 23.388C111.977 23.4093 111.369 23.4413 110.836 23.484V20.252C111.305 20.2093 111.817 20.1773 112.372 20.156C112.948 20.1133 113.534 20.0813 114.132 20.06C114.75 20.0387 115.337 20.028 115.892 20.028C117.641 20.028 119.092 20.252 120.244 20.7C121.396 21.148 122.249 21.8627 122.804 22.844C123.38 23.804 123.668 25.0947 123.668 26.716V37.5H120.692ZM115.092 37.948C113.833 37.948 112.734 37.7347 111.796 37.308C110.857 36.86 110.132 36.22 109.62 35.388C109.108 34.5347 108.852 33.5213 108.852 32.348C108.852 31.1107 109.14 30.0867 109.716 29.276C110.313 28.4653 111.156 27.8573 112.244 27.452C113.332 27.0467 114.633 26.844 116.148 26.844H120.468V29.308H116.052C114.921 29.308 114.057 29.5853 113.46 30.14C112.862 30.6733 112.564 31.3773 112.564 32.252C112.564 33.1267 112.862 33.8307 113.46 34.364C114.057 34.876 114.921 35.132 116.052 35.132C116.713 35.132 117.342 35.0147 117.94 34.78C118.537 34.524 119.028 34.108 119.412 33.532C119.817 32.956 120.041 32.1453 120.084 31.1L121.044 32.348C120.937 33.564 120.638 34.588 120.148 35.42C119.678 36.2307 119.017 36.86 118.164 37.308C117.332 37.7347 116.308 37.948 115.092 37.948ZM136.054 38.076C134.816 38.076 133.686 37.852 132.662 37.404C131.659 36.956 130.774 36.3267 130.006 35.516C129.259 34.7053 128.683 33.7667 128.278 32.7C127.872 31.6333 127.67 30.4707 127.67 29.212V28.604C127.67 27.3667 127.862 26.2147 128.246 25.148C128.651 24.06 129.216 23.1107 129.942 22.3C130.667 21.4893 131.531 20.86 132.534 20.412C133.558 19.9427 134.688 19.708 135.926 19.708C137.248 19.708 138.432 19.996 139.478 20.572C140.544 21.1267 141.398 21.9907 142.038 23.164C142.699 24.316 143.062 25.788 143.126 27.58L141.846 25.82V14.14H145.59V37.5H142.614V30.012H143.446C143.382 31.868 142.998 33.3933 142.294 34.588C141.611 35.7827 140.726 36.668 139.638 37.244C138.55 37.7987 137.355 38.076 136.054 38.076ZM136.758 34.844C137.718 34.844 138.582 34.6307 139.35 34.204C140.139 33.7773 140.768 33.1587 141.238 32.348C141.728 31.516 141.974 30.5453 141.974 29.436V28.06C141.974 26.972 141.728 26.044 141.238 25.276C140.747 24.508 140.107 23.9213 139.318 23.516C138.528 23.1107 137.664 22.908 136.726 22.908C135.68 22.908 134.752 23.164 133.942 23.676C133.152 24.1667 132.534 24.86 132.086 25.756C131.638 26.652 131.414 27.6973 131.414 28.892C131.414 30.108 131.638 31.164 132.086 32.06C132.555 32.956 133.195 33.6493 134.006 34.14C134.816 34.6093 135.734 34.844 136.758 34.844ZM159.2 38.076C157.686 38.076 156.352 37.8307 155.2 37.34C154.048 36.828 153.078 36.156 152.288 35.324C151.499 34.492 150.902 33.5533 150.496 32.508C150.091 31.4413 149.888 30.3427 149.888 29.212V28.572C149.888 27.4413 150.091 26.3427 150.496 25.276C150.923 24.2093 151.531 23.26 152.32 22.428C153.131 21.5747 154.112 20.9027 155.264 20.412C156.416 19.9213 157.728 19.676 159.2 19.676C160.672 19.676 161.974 19.9213 163.104 20.412C164.256 20.9027 165.238 21.5747 166.048 22.428C166.859 23.26 167.467 24.2093 167.872 25.276C168.299 26.3427 168.512 27.4413 168.512 28.572V29.212C168.512 30.3427 168.31 31.4413 167.904 32.508C167.499 33.5533 166.902 34.492 166.112 35.324C165.323 36.156 164.352 36.828 163.2 37.34C162.048 37.8307 160.715 38.076 159.2 38.076ZM159.2 34.812C160.374 34.812 161.376 34.556 162.208 34.044C163.04 33.5107 163.67 32.796 164.096 31.9C164.544 31.004 164.768 30.0013 164.768 28.892C164.768 27.7613 164.544 26.748 164.096 25.852C163.648 24.956 163.008 24.252 162.176 23.74C161.344 23.2067 160.352 22.94 159.2 22.94C158.048 22.94 157.056 23.2067 156.224 23.74C155.392 24.252 154.752 24.956 154.304 25.852C153.856 26.748 153.632 27.7613 153.632 28.892C153.632 30.0013 153.846 31.004 154.272 31.9C154.72 32.796 155.36 33.5107 156.192 34.044C157.024 34.556 158.027 34.812 159.2 34.812ZM180.28 38.076C178.808 38.076 177.517 37.8307 176.408 37.34C175.32 36.828 174.413 36.1453 173.688 35.292C172.984 34.4173 172.45 33.4573 172.088 32.412C171.746 31.3453 171.576 30.268 171.576 29.18V28.604C171.576 27.4733 171.757 26.3853 172.12 25.34C172.482 24.2733 173.026 23.3133 173.752 22.46C174.477 21.6067 175.373 20.9347 176.44 20.444C177.528 19.932 178.797 19.676 180.248 19.676C181.72 19.676 183.032 19.9533 184.184 20.508C185.357 21.0627 186.296 21.852 187 22.876C187.704 23.8787 188.098 25.052 188.184 26.396H184.568C184.44 25.436 184.002 24.6253 183.256 23.964C182.53 23.3027 181.528 22.972 180.248 22.972C179.138 22.972 178.221 23.228 177.496 23.74C176.77 24.252 176.226 24.956 175.864 25.852C175.501 26.7267 175.32 27.74 175.32 28.892C175.32 30.0013 175.49 31.004 175.832 31.9C176.194 32.796 176.738 33.5 177.464 34.012C178.21 34.524 179.149 34.78 180.28 34.78C181.154 34.78 181.901 34.6307 182.52 34.332C183.16 34.012 183.672 33.596 184.056 33.084C184.44 32.5507 184.664 31.9427 184.728 31.26H188.376C188.312 32.6467 187.917 33.852 187.192 34.876C186.466 35.8787 185.506 36.668 184.312 37.244C183.117 37.7987 181.773 38.076 180.28 38.076ZM198.213 38.012C195.887 38.012 194.074 37.5213 192.773 36.54C191.493 35.5587 190.821 34.204 190.757 32.476H194.213C194.255 33.116 194.586 33.7027 195.205 34.236C195.823 34.7693 196.837 35.036 198.245 35.036C199.439 35.036 200.378 34.8013 201.061 34.332C201.743 33.8627 202.085 33.276 202.085 32.572C202.085 31.932 201.829 31.4307 201.317 31.068C200.826 30.684 199.983 30.428 198.789 30.3L197.093 30.14C195.322 29.948 193.914 29.4253 192.869 28.572C191.845 27.7187 191.333 26.5667 191.333 25.116C191.333 23.964 191.621 22.9933 192.197 22.204C192.773 21.4147 193.562 20.8067 194.565 20.38C195.589 19.9533 196.762 19.74 198.085 19.74C200.133 19.74 201.786 20.1987 203.045 21.116C204.303 22.012 204.954 23.3347 204.997 25.084H201.573C201.53 24.4227 201.221 23.868 200.645 23.42C200.069 22.972 199.215 22.748 198.085 22.748C197.018 22.748 196.197 22.9613 195.621 23.388C195.066 23.8147 194.789 24.3587 194.789 25.02C194.789 25.6173 195.002 26.0867 195.429 26.428C195.855 26.7693 196.549 26.9933 197.509 27.1L199.205 27.26C201.146 27.4733 202.682 28.0173 203.813 28.892C204.965 29.7453 205.541 30.94 205.541 32.476C205.541 33.5853 205.231 34.556 204.613 35.388C203.994 36.22 203.13 36.8707 202.021 37.34C200.933 37.788 199.663 38.012 198.213 38.012Z" fill="black"/>
</svg>
