<svg width="50" height="24" viewBox="0 0 50 24" fill="none" xmlns="http://www.w3.org/2000/svg">
<path d="M25 6C25.5523 6 26 5.55228 26 5C26 4.44772 25.5523 4 25 4C24.4477 4 24 4.44772 24 5C24 5.55228 24.4477 6 25 6Z" stroke="#475569" stroke-width="2" stroke-linecap="round" stroke-linejoin="round"/>
<path d="M25 13C25.5523 13 26 12.5523 26 12C26 11.4477 25.5523 11 25 11C24.4477 11 24 11.4477 24 12C24 12.5523 24.4477 13 25 13Z" stroke="#475569" stroke-width="2" stroke-linecap="round" stroke-linejoin="round"/>
<path d="M25 20C25.5523 20 26 19.5523 26 19C26 18.4477 25.5523 18 25 18C24.4477 18 24 18.4477 24 19C24 19.5523 24.4477 20 25 20Z" stroke="#475569" stroke-width="2" stroke-linecap="round" stroke-linejoin="round"/>
</svg>
