<svg width="16" height="16" viewBox="0 0 16 16" fill="none" xmlns="http://www.w3.org/2000/svg">
<path opacity="0.4" d="M8.00004 14.6667C11.6819 14.6667 14.6667 11.6819 14.6667 8.00004C14.6667 4.31814 11.6819 1.33337 8.00004 1.33337C4.31814 1.33337 1.33337 4.31814 1.33337 8.00004C1.33337 11.6819 4.31814 14.6667 8.00004 14.6667Z" fill="#055DF5"/>
<path d="M10.6667 7.50004H8.50004V5.33337C8.50004 5.06004 8.27337 4.83337 8.00004 4.83337C7.72671 4.83337 7.50004 5.06004 7.50004 5.33337V7.50004H5.33337C5.06004 7.50004 4.83337 7.72671 4.83337 8.00004C4.83337 8.27337 5.06004 8.50004 5.33337 8.50004H7.50004V10.6667C7.50004 10.94 7.72671 11.1667 8.00004 11.1667C8.27337 11.1667 8.50004 10.94 8.50004 10.6667V8.50004H10.6667C10.94 8.50004 11.1667 8.27337 11.1667 8.00004C11.1667 7.72671 10.94 7.50004 10.6667 7.50004Z" fill="#055DF5"/>
</svg>
