<svg width="16" height="16" viewBox="0 0 16 16" fill="none" xmlns="http://www.w3.org/2000/svg">
<path opacity="0.4" d="M7.99992 14.6667C11.6818 14.6667 14.6666 11.6819 14.6666 8.00004C14.6666 4.31814 11.6818 1.33337 7.99992 1.33337C4.31802 1.33337 1.33325 4.31814 1.33325 8.00004C1.33325 11.6819 4.31802 14.6667 7.99992 14.6667Z" fill="#055DF5"/>
<path d="M10.6666 7.50004H8.49992V5.33337C8.49992 5.06004 8.27325 4.83337 7.99992 4.83337C7.72659 4.83337 7.49992 5.06004 7.49992 5.33337V7.50004H5.33325C5.05992 7.50004 4.83325 7.72671 4.83325 8.00004C4.83325 8.27337 5.05992 8.50004 5.33325 8.50004H7.49992V10.6667C7.49992 10.94 7.72659 11.1667 7.99992 11.1667C8.27325 11.1667 8.49992 10.94 8.49992 10.6667V8.50004H10.6666C10.9399 8.50004 11.1666 8.27337 11.1666 8.00004C11.1666 7.72671 10.9399 7.50004 10.6666 7.50004Z" fill="#055DF5"/>
</svg>
