<svg width="16" height="16" viewBox="0 0 16 16" fill="none" xmlns="http://www.w3.org/2000/svg">
<path d="M14.0467 3.48665C12.9734 3.37998 11.9001 3.29998 10.8201 3.23998V3.23331L10.6734 2.36665C10.5734 1.75331 10.4267 0.833313 8.86673 0.833313H7.12006C5.56673 0.833313 5.42006 1.71331 5.3134 2.35998L5.1734 3.21331C4.5534 3.25331 3.9334 3.29331 3.3134 3.35331L1.9534 3.48665C1.6734 3.51331 1.4734 3.75998 1.50006 4.03331C1.52673 4.30665 1.76673 4.50665 2.04673 4.47998L3.40673 4.34665C6.90006 3.99998 10.4201 4.13331 13.9534 4.48665C13.9734 4.48665 13.9867 4.48665 14.0067 4.48665C14.2601 4.48665 14.4801 4.29331 14.5067 4.03331C14.5267 3.75998 14.3267 3.51331 14.0467 3.48665Z" fill="#292D32"/>
<path d="M12.82 5.42669C12.66 5.26002 12.44 5.16669 12.2134 5.16669H3.7867C3.56004 5.16669 3.33337 5.26002 3.18004 5.42669C3.0267 5.59335 2.94004 5.82002 2.95337 6.05335L3.3667 12.8934C3.44004 13.9067 3.53337 15.1734 5.86004 15.1734H10.14C12.4667 15.1734 12.56 13.9134 12.6334 12.8934L13.0467 6.06002C13.06 5.82002 12.9734 5.59335 12.82 5.42669ZM9.1067 11.8334H6.8867C6.61337 11.8334 6.3867 11.6067 6.3867 11.3334C6.3867 11.06 6.61337 10.8334 6.8867 10.8334H9.1067C9.38004 10.8334 9.6067 11.06 9.6067 11.3334C9.6067 11.6067 9.38004 11.8334 9.1067 11.8334ZM9.6667 9.16669H6.33337C6.06004 9.16669 5.83337 8.94002 5.83337 8.66669C5.83337 8.39335 6.06004 8.16669 6.33337 8.16669H9.6667C9.94004 8.16669 10.1667 8.39335 10.1667 8.66669C10.1667 8.94002 9.94004 9.16669 9.6667 9.16669Z" fill="#292D32"/>
</svg>
